<svg xmlns="http://www.w3.org/2000/svg" xmlns:xlink="http://www.w3.org/1999/xlink" width="1734" height="561" viewbox="0 0 1734 561"><path transform="translate(863.1843735570495 218.8086821182914) scale(1) translate(-517.8953110570495 -164.8086821182914) rotate(0)" d="M 59 0 L 761.3011568994541 0" fill="none" stroke="#000000" stroke-width="5"></path><polygon transform="translate(863.1843735570495 218.8086821182914) scale(1) translate(-517.8953110570495 -164.8086821182914) rotate(0) translate(786.1633075172024 0) rotate(0)" points="-24.8621506177483,0 -27.62461179749811,9.20820393249937 0,0 -27.62461179749811,-9.20820393249937" fill="undefined" stroke="none" stroke-width="5"></polygon><rect transform="translate(863.1843735570495 218.8086821182914) scale(1) translate(-107.74473260732248 -164.8086821182914) rotate(0) translate(0 -25) translate(0 0) translate(-119.51171875 0)" x="0" y="0" width="239.0234375" height="50" rx="5" ry="5" fill="#ffffff" stroke="none"></rect><text xml:space="preserve" transform="translate(863.1843735570495 218.8086821182914) scale(1) translate(-107.74473260732248 -164.8086821182914) rotate(0) translate(0 -25) translate(0 0) translate(-119.51171875 0)" x="5" y="35.5" font-family="sans-serif" font-size="40" font-weight="normal" text-anchor="left" fill="#000000">je studentem</text><path transform="translate(863.1843735570495 218.8086821182914) scale(1) translate(-95.31365729844828 192.01858520507812) rotate(-40.17769349324277)" d="M 59 0 L 469.22098309617877 0" fill="none" stroke="#000000" stroke-width="5"></path><polygon transform="translate(863.1843735570495 218.8086821182914) scale(1) translate(-95.31365729844828 192.01858520507812) rotate(-40.17769349324277) translate(494.08313371392705 0) rotate(0)" points="-24.8621506177483,0 -27.62461179749811,9.20820393249937 0,0 -27.62461179749811,-9.20820393249937" fill="undefined" stroke="none" stroke-width="5"></polygon><rect transform="translate(863.1843735570495 218.8086821182914) scale(1) translate(106.47924053219893 21.624987523465194) rotate(-40.17769349324277) translate(0 -25) translate(0 0) translate(-119.51171875 0)" x="0" y="0" width="239.0234375" height="50" rx="5" ry="5" fill="#ffffff" stroke="none"></rect><text xml:space="preserve" transform="translate(863.1843735570495 218.8086821182914) scale(1) translate(106.47924053219893 21.624987523465194) rotate(-40.17769349324277) translate(0 -25) translate(0 0) translate(-119.51171875 0)" x="5" y="35.5" font-family="sans-serif" font-size="40" font-weight="normal" text-anchor="left" fill="#000000">je studentem</text><path transform="translate(863.1843735570495 218.8086821182914) scale(1) translate(-517.8953110570495 -164.8086821182914) rotate(40.17769349324277)" d="M 59 0 L 469.22098309617877 0" fill="none" stroke="#000000" stroke-width="5"></path><polygon transform="translate(863.1843735570495 218.8086821182914) scale(1) translate(-517.8953110570495 -164.8086821182914) rotate(40.17769349324277) translate(494.08313371392705 0) rotate(0)" points="-24.8621506177483,0 -27.62461179749811,9.20820393249937 0,0 -27.62461179749811,-9.20820393249937" fill="undefined" stroke="none" stroke-width="5"></polygon><rect transform="translate(863.1843735570495 218.8086821182914) scale(1) translate(-316.1024132264023 5.584915563321516) rotate(40.17769349324277) translate(0 -49) translate(0 0) translate(-37.24609375 0)" x="0" y="0" width="74.4921875" height="50" rx="5" ry="5" fill="#ffffff" stroke="none"></rect><text xml:space="preserve" transform="translate(863.1843735570495 218.8086821182914) scale(1) translate(-316.1024132264023 5.584915563321516) rotate(40.17769349324277) translate(0 -49) translate(0 0) translate(-37.24609375 0)" x="5" y="35.5" font-family="sans-serif" font-size="40" font-weight="normal" text-anchor="left" fill="#000000">zná</text><rect transform="translate(863.1843735570495 218.8086821182914) scale(1) translate(-316.1024132264023 5.584915563321516) rotate(40.17769349324277) translate(0 -49) translate(0 50) translate(-143.4375 0)" x="0" y="0" width="286.875" height="48" rx="0" ry="0" fill="white" stroke="none"></rect><text xml:space="preserve" transform="translate(863.1843735570495 218.8086821182914) scale(1) translate(-316.1024132264023 5.584915563321516) rotate(40.17769349324277) translate(0 -49) translate(0 50) translate(-143.4375 0)" x="86.69921875" y="34.5" font-family="sans-serif" font-size="40" font-weight="normal" text-anchor="end" fill="#000000">Od :</text><text xml:space="preserve" transform="translate(863.1843735570495 218.8086821182914) scale(1) translate(-316.1024132264023 5.584915563321516) rotate(40.17769349324277) translate(0 -49) translate(0 50) translate(-143.4375 0)" x="97.8125" y="34.5" font-family="sans-serif" font-size="40" font-weight="normal" text-anchor="start" fill="#000000">20.1.2019</text><circle transform="translate(863.1843735570495 218.8086821182914) scale(1)" cx="-517.8953110570495" cy="-164.8086821182914" r="52" fill="#fe9200" stroke="#000000" strokewidth="4"></circle><text xml:space="preserve" transform="translate(863.1843735570495 218.8086821182914) scale(1) translate(-517.8953110570495 -164.8086821182914) scale(0.5625004375) translate(0 0) translate(0 0)" x="0" y="13" font-family="sans-serif" font-size="50" font-weight="normal" text-anchor="middle" fill="#000000">Osoba</text><rect transform="translate(863.1843735570495 218.8086821182914) scale(1) translate(-517.8953110570495 -164.8086821182914) translate(-54 -47.99999999999999) translate(0 0) translate(-291.2890625 0)" x="0" y="0" width="291.2890625" height="96" rx="0" ry="0" fill="white" stroke="none"></rect><text xml:space="preserve" transform="translate(863.1843735570495 218.8086821182914) scale(1) translate(-517.8953110570495 -164.8086821182914) translate(-54 -47.99999999999999) translate(0 0) translate(-291.2890625 0)" x="142.28515625" y="34.5" font-family="sans-serif" font-size="40" font-weight="normal" text-anchor="end" fill="#000000">Jméno:</text><text xml:space="preserve" transform="translate(863.1843735570495 218.8086821182914) scale(1) translate(-517.8953110570495 -164.8086821182914) translate(-54 -47.99999999999999) translate(0 0) translate(-291.2890625 0)" x="153.3984375" y="34.5" font-family="sans-serif" font-size="40" font-weight="normal" text-anchor="start" fill="#000000">Štěpán</text><text xml:space="preserve" transform="translate(863.1843735570495 218.8086821182914) scale(1) translate(-517.8953110570495 -164.8086821182914) translate(-54 -47.99999999999999) translate(0 0) translate(-291.2890625 0)" x="142.28515625" y="82.5" font-family="sans-serif" font-size="40" font-weight="normal" text-anchor="end" fill="#000000">Věk:</text><text xml:space="preserve" transform="translate(863.1843735570495 218.8086821182914) scale(1) translate(-517.8953110570495 -164.8086821182914) translate(-54 -47.99999999999999) translate(0 0) translate(-291.2890625 0)" x="153.3984375" y="82.5" font-family="sans-serif" font-size="40" font-weight="normal" text-anchor="start" fill="#000000">24</text><circle transform="translate(863.1843735570495 218.8086821182914) scale(1)" cx="327.2679964601529" cy="-164.8086821182914" r="52" fill="#73d8ff" stroke="#000000" strokewidth="4"></circle><text xml:space="preserve" transform="translate(863.1843735570495 218.8086821182914) scale(1) translate(327.2679964601529 -164.8086821182914) scale(0.39062560937499996) translate(0 0) translate(0 0)" x="0" y="13" font-family="sans-serif" font-size="50" font-weight="normal" text-anchor="middle" fill="#000000">Univerzita</text><rect transform="translate(863.1843735570495 218.8086821182914) scale(1) translate(327.2679964601529 -164.8086821182914) translate(54 -24) translate(0 0) translate(0 0)" x="0" y="0" width="489.08203125" height="48" rx="0" ry="0" fill="white" stroke="none"></rect><text xml:space="preserve" transform="translate(863.1843735570495 218.8086821182914) scale(1) translate(327.2679964601529 -164.8086821182914) translate(54 -24) translate(0 0) translate(0 0)" x="142.28515625" y="34.5" font-family="sans-serif" font-size="40" font-weight="normal" text-anchor="end" fill="#000000">Jméno:</text><text xml:space="preserve" transform="translate(863.1843735570495 218.8086821182914) scale(1) translate(327.2679964601529 -164.8086821182914) translate(54 -24) translate(0 0) translate(0 0)" x="153.3984375" y="34.5" font-family="sans-serif" font-size="40" font-weight="normal" text-anchor="start" fill="#000000">Univerzita Karlova</text><circle transform="translate(863.1843735570495 218.8086821182914) scale(1)" cx="-95.31365729844828" cy="192.01858520507812" r="52" fill="#fe9200" stroke="#000000" strokewidth="4"></circle><text xml:space="preserve" transform="translate(863.1843735570495 218.8086821182914) scale(1) translate(-95.31365729844828 192.01858520507812) scale(0.5625004375) translate(0 0) translate(0 0)" x="0" y="13" font-family="sans-serif" font-size="50" font-weight="normal" text-anchor="middle" fill="#000000">Osoba</text><rect transform="translate(863.1843735570495 218.8086821182914) scale(1) translate(-95.31365729844828 192.01858520507812) translate(3.3065463576978537e-15 54) translate(0 0) translate(-135.60546875 0)" x="0" y="0" width="271.2109375" height="96" rx="0" ry="0" fill="white" stroke="none"></rect><text xml:space="preserve" transform="translate(863.1843735570495 218.8086821182914) scale(1) translate(-95.31365729844828 192.01858520507812) translate(3.3065463576978537e-15 54) translate(0 0) translate(-135.60546875 0)" x="142.28515625" y="34.5" font-family="sans-serif" font-size="40" font-weight="normal" text-anchor="end" fill="#000000">Jméno:</text><text xml:space="preserve" transform="translate(863.1843735570495 218.8086821182914) scale(1) translate(-95.31365729844828 192.01858520507812) translate(3.3065463576978537e-15 54) translate(0 0) translate(-135.60546875 0)" x="153.3984375" y="34.5" font-family="sans-serif" font-size="40" font-weight="normal" text-anchor="start" fill="#000000">Eliška</text><text xml:space="preserve" transform="translate(863.1843735570495 218.8086821182914) scale(1) translate(-95.31365729844828 192.01858520507812) translate(3.3065463576978537e-15 54) translate(0 0) translate(-135.60546875 0)" x="142.28515625" y="82.5" font-family="sans-serif" font-size="40" font-weight="normal" text-anchor="end" fill="#000000">Věk:</text><text xml:space="preserve" transform="translate(863.1843735570495 218.8086821182914) scale(1) translate(-95.31365729844828 192.01858520507812) translate(3.3065463576978537e-15 54) translate(0 0) translate(-135.60546875 0)" x="153.3984375" y="82.5" font-family="sans-serif" font-size="40" font-weight="normal" text-anchor="start" fill="#000000">25</text></svg>